<svg id="Calque_1" data-name="Calque 1" xmlns="http://www.w3.org/2000/svg" xmlns:xlink="http://www.w3.org/1999/xlink" viewBox="0 0 600 300"><defs><style>.cls-1{fill:#fff;}.cls-2{fill:url(#Dégradé_sans_nom_28);}</style><linearGradient id="Dégradé_sans_nom_28" x1="26.09" y1="219.96" x2="197.46" y2="103.53" gradientUnits="userSpaceOnUse"><stop offset="0" stop-color="aqua"/><stop offset="0.14" stop-color="#00fff5"/><stop offset="0.37" stop-color="#00ffda"/><stop offset="0.66" stop-color="#00ffae"/><stop offset="1" stop-color="#00ff74"/></linearGradient></defs><title>CCC_logo-fondnoir</title><path class="cls-1" d="M272,147.45c-17.42,0-30.86-13.07-30.86-30s13.56-30.24,31-30.24a32,32,0,0,1,8.34,1.12,27.58,27.58,0,0,1,9.71,4.36v12.94q-2.24-2.43-4.11-4.11a21.56,21.56,0,0,0-14.19-5.35c-11.7,0-20.53,9.21-20.53,21.15s8.71,21.28,20.41,21.28a21.1,21.1,0,0,0,8.71-1.87c3.73-1.62,5.85-3.36,10.08-8.21v12.94C283.65,146,278.8,147.45,272,147.45Z"/><path class="cls-1" d="M331.43,147.45c-16.92,0-30.74-13.19-30.74-29.62a30.17,30.17,0,0,1,30.49-30.61c17.55,0,31,13.19,31,30.11S348.73,147.45,331.43,147.45Zm-.12-51.27c-11.7,0-20.41,9-20.41,20.9,0,12.44,8.46,21.53,20.28,21.53,12.2,0,20.78-8.84,20.78-21.28S343.38,96.18,331.31,96.18Z"/><path class="cls-1" d="M420.53,145.83v-8c-5.48,6.6-11.95,9.58-20.16,9.58-16.18,0-28-12.82-28-30.36,0-17.17,11.7-29.87,27.75-29.87,8.34,0,14.56,3,20.41,9.46V52.5h10v93.33ZM401.74,96.18c-10.83,0-19.16,9-19.16,20.66,0,12.69,8,21.78,19.16,21.78,11.45,0,19.41-8.84,19.41-21.53C421.15,104.77,413.18,96.18,401.74,96.18Z"/><path class="cls-1" d="M451.38,74a7,7,0,1,1,7.22-7.09A7.06,7.06,0,0,1,451.38,74Zm-5,71.8V88.59h10.08v57.24Z"/><path class="cls-1" d="M509,145.83V112c0-6.1-.37-8.71-1.87-11.2-1.87-3-5.6-4.73-10.2-4.73-10.2,0-14.44,6.35-14.44,21.15v28.62H472.41V88.59h10.08v7c5-6.22,9.46-8.34,16.68-8.34,7,0,13.44,3,16.55,7.84,2.36,3.49,3.36,7.84,3.36,15.31v35.47Z"/><path class="cls-1" d="M584.28,168.11c-5.23,6.84-13.44,10.7-23.15,10.7-16.67,0-27.63-10.2-28.25-26.38h9.83c.5,5.1,1,7.09,2.74,9.71,3.11,4.73,9.21,7.72,15.8,7.72,12.32,0,18.67-7.72,18.67-22.65v-9.33a26.83,26.83,0,0,1-20.53,9.58c-15.68,0-27.63-12.94-27.63-30,0-17.42,11.95-30.24,28.12-30.24,8.21,0,14.56,3,20,9.46V88.59H590v57C590,157.16,588.63,162.51,584.28,168.11ZM561,96.06c-11,0-19,9-19,21.15,0,12.57,7.84,21.28,18.92,21.28,11.57,0,19.54-8.71,19.54-21.41C580.42,104.77,572.33,96.06,561,96.06Z"/><path class="cls-1" d="M272,228c-17.42,0-30.86-13.07-30.86-30s13.56-30.24,31-30.24a32,32,0,0,1,8.34,1.12,27.58,27.58,0,0,1,9.71,4.36v12.94q-2.24-2.43-4.11-4.11a21.56,21.56,0,0,0-14.19-5.35c-11.7,0-20.53,9.21-20.53,21.15s8.71,21.28,20.41,21.28a21.1,21.1,0,0,0,8.71-1.87c3.73-1.62,5.85-3.36,10.08-8.21V222C283.65,226.53,278.8,228,272,228Z"/><path class="cls-1" d="M348.86,226.4v-8C343.13,225.16,337,228,328.7,228c-16.18,0-28-12.82-28-30.49,0-17.17,11.7-29.74,27.87-29.74,8.34,0,14.43,2.86,20.28,9.46v-8.09h10V226.4Zm-18.79-49.78c-10.83,0-19.16,9-19.16,20.78,0,12.57,8,21.78,19.16,21.78,11.45,0,19.41-8.84,19.41-21.53C349.48,185.21,341.51,176.63,330.06,176.63Z"/><path class="cls-1" d="M440.19,226.4V191.68c0-10.58-3-15.06-10.45-15.06-8.34,0-12.44,6-12.44,18V226.4h-10v-34c0-10.45-3.61-15.8-10.7-15.8a11.85,11.85,0,0,0-10.45,6.22c-1.49,2.86-2.12,6.84-2.12,12.44V226.4H374V169.16h10.08v6.1c4.11-5.35,8.09-7.47,14.31-7.47,7,0,12.69,3.24,15.93,9.21,3.61-6.1,9.46-9.21,17-9.21,6.59,0,12.57,2.86,15.68,7.72,2.24,3.61,3.11,7.72,3.11,14.56V226.4Z"/><path class="cls-1" d="M495.68,228c-8.34,0-14.56-2.86-20.28-9.58v40.69H465.32v-90H475.4l-.12,8.09c5.85-6.6,11.95-9.46,20.16-9.46,16.18,0,28,12.82,28,30.36C523.43,215.45,511.73,228,495.68,228Zm-1.49-51.39c-11.32,0-19.54,9-19.54,21.53,0,12.2,8.21,21,19.54,21,10.83,0,19-9,19-20.78C513.23,185.71,505.26,176.63,494.19,176.63Z"/><path class="cls-1" d="M224.48,70.18a1.46,1.46,0,0,1-.2.55,1.09,1.09,0,0,1-.43.24,18.35,18.35,0,0,1-8,1c-6.85-.75-11.2-4.95-12.59-10.38a17.6,17.6,0,0,1,3-15.12,16,16,0,0,1,9.85-5.43,20.51,20.51,0,0,1,9.62.91,13.18,13.18,0,0,1,2.77,1.31c.59.4.67.56.67.56s0,.08-.12.71l-1.11,5.82a.59.59,0,0,1-.2.36s-.08,0-.63-.32a13,13,0,0,0-7.72-2.22c-3.17.2-6.85,1.86-8,6.06-1,3.72,0,6.85,2.26,8.71A9,9,0,0,0,220,64.83a14.33,14.33,0,0,0,4.67-1.19l.24-.08c.56-.28.67-.24.67-.24s.12.12,0,.47Z"/><path class="cls-1" d="M286,71.22h-7.33l-.08-.08-9.86-17.5c-.08-.08-.12-.08-.12-.08s-.08,0-.08.12l-2.44,17.18c0,.19-.08.23-.08.23a.47.47,0,0,1-.19,0h-7.06a.31.31,0,0,1-.19-.08.4.4,0,0,1-.12-.31l3.88-27.81a.3.3,0,0,1,.12-.19.42.42,0,0,1,.23-.12h7.88a.29.29,0,0,1,.19.08.27.27,0,0,1,.12.15l8.89,15.6c.16.31.27.27.27.27s.12,0,.19-.35l2.25-15.52a.17.17,0,0,1,.08-.15s0,0,.15,0h7.41c.16,0,.19.08.19.08a.16.16,0,0,1,0,.11l-4,28a1,1,0,0,1-.12.27S286.17,71.22,286,71.22Z"/><path class="cls-1" d="M250.12,42.86a.47.47,0,0,0-.07-.15.44.44,0,0,0-.28-.12h-9.16a.38.38,0,0,0-.19.2l-13.93,28a.39.39,0,0,0,0,.27s0,.11.28.08h8a.48.48,0,0,0,.23-.08.88.88,0,0,0,.12-.19L237,66.72a1,1,0,0,1,.27-.38.42.42,0,0,1,.31-.16h9.85a.17.17,0,0,1,.08.16l1.09,4.46c0,.27.08.31.08.31a.64.64,0,0,0,.27.06h6.91a.13.13,0,0,0,.12-.06.16.16,0,0,0,.08-.15Zm-3.59,17.07a.13.13,0,0,1-.08,0l-5.7,0c-.19,0-.24,0-.24,0a.22.22,0,0,1,0-.19l3.88-8.8c0-.08.08-.08.08-.08s0,0,0,.08l2,8.88C246.57,59.89,246.53,59.93,246.53,59.93Z"/><path class="cls-1" d="M300.54,42.62a.37.37,0,0,0-.31.22L289.39,71a.15.15,0,0,0,.15.22h7.4a.37.37,0,0,0,.31-.21L299,66.5a.36.36,0,0,1,.31-.22h9.81a.36.36,0,0,1,.31.22L311.18,71a.36.36,0,0,0,.31.22H319a.15.15,0,0,0,.15-.22l-10.64-28.2a.37.37,0,0,0-.31-.22Zm.89,18a.15.15,0,0,1-.15-.21l3-8.66c0-.12.11-.12.15,0l2.9,8.66a.15.15,0,0,1-.16.22Z"/><path class="cls-1" d="M329.89,63.82a.26.26,0,0,0,.26.26h9a.26.26,0,0,1,.26.26V71a.26.26,0,0,1-.26.26H321.64a.26.26,0,0,1-.26-.26V41.77a.26.26,0,0,1,.26-.26h8a.26.26,0,0,1,.26.26Z"/><path class="cls-2" d="M167.25,75.68l-51.58,23.1L64.1,75.68,10,99.91V218.28l54.1,24.23,51.58-23.1,51.58,23.1,54.1-24.23V99.91Zm49,76V215l-46.52,20.83V172.48Zm-51.57,20.83v63.36L118.21,215V151.65Zm-51.58-20.83V215L66.63,235.84V172.48ZM61.57,172.48v63.36L15.06,215V151.65Zm-3.65-47.83-42.86,19.2V105.45Zm-39.21,23.1L64.1,127.42l45.39,20.33L64.1,168.07ZM64.1,81.22l45.39,20.33L64.1,121.88,18.71,101.55Zm51.58,23.1,45.39,20.33L115.68,145,70.29,124.65Zm57.76,20.33,42.86-19.2v38.39Zm39.21,23.1-45.39,20.33-45.39-20.33,45.39-20.33Zm-45.39-25.87-45.39-20.33,45.39-20.33,45.39,20.33Z"/></svg>