<svg data-name="Calque 1" id="Calque_1" viewBox="0 0 600 300" xmlns="http://www.w3.org/2000/svg" xmlns:xlink="http://www.w3.org/1999/xlink">
  <defs>
    <style>.cls-1{fill:#fff;}.cls-2{fill:url(#Dégradé_sans_nom_28);}</style>
    <linearGradient gradientUnits="userSpaceOnUse" id="Dégradé_sans_nom_28" x1="26.09" x2="197.46" y1="219.96" y2="103.53">
      <stop offset="0" stop-color="aqua"/>
      <stop offset="0.14" stop-color="#00fff5"/>
      <stop offset="0.37" stop-color="#00ffda"/>
      <stop offset="0.66" stop-color="#00ffae"/>
      <stop offset="1" stop-color="#00ff74"/>
    </linearGradient>
  </defs>
  <title>CCC_logo-fondnoir_notitle</title>
  <path class="cls-2" d="M167.25,75.68l-51.58,23.1L64.1,75.68,10,99.91V218.28l54.1,24.23,51.58-23.1,51.58,23.1,54.1-24.23V99.91Zm49,76V215l-46.52,20.83V172.48Zm-51.57,20.83v63.36L118.21,215V151.65Zm-51.58-20.83V215L66.63,235.84V172.48ZM61.57,172.48v63.36L15.06,215V151.65Zm-3.65-47.83-42.86,19.2V105.45Zm-39.21,23.1L64.1,127.42l45.39,20.33L64.1,168.07ZM64.1,81.22l45.39,20.33L64.1,121.88,18.71,101.55Zm51.58,23.1,45.39,20.33L115.68,145,70.29,124.65Zm57.76,20.33,42.86-19.2v38.39Zm39.21,23.1-45.39,20.33-45.39-20.33,45.39-20.33Zm-45.39-25.87-45.39-20.33,45.39-20.33,45.39,20.33Z"/>
</svg>