<?xml version="1.0" encoding="utf-8"?>
<!-- Generator: Adobe Illustrator 22.1.0, SVG Export Plug-In . SVG Version: 6.00 Build 0)  -->
<svg version="1.1" id="Calque_1" xmlns="http://www.w3.org/2000/svg" xmlns:xlink="http://www.w3.org/1999/xlink" x="0px" y="0px"
	 viewBox="0 0 135.8 115.4" style="enable-background:new 0 0 135.8 115.4;" xml:space="preserve">
<style type="text/css">
	.st0{display:none;fill:#4AC0C1;}
	.st1{fill:#FFFFFF;}
	.st2{opacity:0.7;fill:#FFFFFF;enable-background:new    ;}
</style>
<title>Hackaton</title>
<rect x="0.4" y="0" class="st0" width="136.1" height="116.5"/>
<polygon class="st1" points="25.5,105.1 22.6,105.1 23.2,100.2 18.9,100.2 18.3,105.1 15.4,105.1 16.8,93.4 19.7,93.4 19.2,97.7 
	23.5,97.7 24,93.4 27,93.4 "/>
<path class="st1" d="M34.3,98.6c-0.1-0.4-0.2-0.7-0.2-0.8c-0.1-0.4-0.1-0.5-0.2-1l-0.1,0.4c-0.1,0.3-0.2,0.7-0.4,1l-1.1,2.4h2.4
	L34.3,98.6z M35.8,105.1l-0.5-2.1h-4l-1,2.1H27l5.7-11.6H36l2.8,11.6H35.8z"/>
<path class="st1" d="M49.4,96.7c0,0.3,0,0.3-0.1,0.3h-0.1L49,96.8c-0.7-0.5-1.6-0.8-2.5-0.8c-1.9-0.1-3.5,1.3-3.6,3.2
	c0,0.1,0,0.2,0,0.2c0,1.7,1.3,3,2.9,3.1c0.1,0,0.1,0,0.2,0c0.9,0,1.8-0.2,2.6-0.6l0.1-0.1l0.1,0.1v0.2l-0.2,2.5l-0.2,0.2
	c-0.9,0.3-1.8,0.5-2.7,0.5c-3.1,0.1-5.7-2.3-5.8-5.4c0-0.1,0-0.3,0-0.4c0-3.5,2.8-6.3,6.2-6.3c0,0,0.1,0,0.1,0c1,0,1.9,0.2,2.8,0.6
	c0.5,0.2,0.7,0.3,0.7,0.5v0.1L49.4,96.7z"/>
<path class="st1" d="M57,99.4l4,5.7h-3.5l-2.5-3.7c0-0.1-0.2-0.3-0.3-0.5c-0.2-0.3-0.4-0.7-0.6-1l-0.7,5.2h-3l1.4-11.6h2.9l-0.6,5.1
	l3.8-5.1h3.4L57,99.4z"/>
<path class="st1" d="M69,98.6c-0.1-0.4-0.2-0.7-0.2-0.8c-0.1-0.4-0.1-0.5-0.2-1l-0.1,0.4c-0.1,0.3-0.2,0.7-0.4,1l-1.1,2.4h2.4
	L69,98.6z M70.5,105.1l-0.5-2.1h-4l-1,2.1h-3.2l5.7-11.6h3.3l2.8,11.6H70.5z"/>
<polygon class="st1" points="82.2,96 79.7,96 78.6,105.1 75.7,105.1 76.8,96 74.3,96 74.6,93.4 82.5,93.4 "/>
<polygon class="st1" points="92.6,105.1 89.7,105.1 90.3,100.2 86,100.2 85.4,105.1 82.5,105.1 83.9,93.4 86.8,93.4 86.3,97.7 
	90.6,97.7 91.1,93.4 94.1,93.4 "/>
<path class="st1" d="M101.7,95.8c-1.9,0-3.4,1.5-3.5,3.4c0,0,0,0.1,0,0.1c-0.1,1.8,1.3,3.2,3,3.3c0.1,0,0.1,0,0.2,0
	c1.8,0,3.4-1.4,3.4-3.3c0-0.1,0-0.1,0-0.2c0.1-1.8-1.2-3.3-3-3.4C101.9,95.8,101.8,95.8,101.7,95.8 M101.6,105.5
	c-3.3,0.2-6.1-2.3-6.3-5.6c0-0.1,0-0.3,0-0.4c-0.1-3.5,2.6-6.4,6.1-6.5c0.1,0,0.3,0,0.4,0c3.2-0.2,5.9,2.2,6.1,5.4
	c0,0.2,0,0.4,0,0.6c0.2,3.4-2.5,6.3-5.9,6.5C101.9,105.5,101.7,105.5,101.6,105.5"/>
<path class="st1" d="M120.6,105.1h-3.2l-3.1-5.2c-0.1-0.2-0.3-0.5-0.5-0.9c-0.3-0.6-0.7-1.3-0.9-2v0.5c0,0.7,0,1.5-0.1,2.2l-0.7,5.4
	h-2.9l1.4-11.6h3.2l3.3,5.6l0.5,0.9l0.4,0.9l0.2,0.4c0-0.2,0-0.4,0-0.5c0-0.4,0.1-1,0.1-1.5l0.7-5.9h2.9L120.6,105.1z"/>
<polygon class="st2" points="72.3,38.7 90.2,47.6 108,38.7 90.2,29.8 "/>
<polygon class="st1" points="95.1,27.3 110.7,35.1 110.7,19.5 "/>
<polygon class="st2" points="49.6,27.3 67.4,36.2 85.2,27.3 67.4,18.4 "/>
<polygon class="st2" points="24.1,19.5 24.1,35.1 39.7,27.3 "/>
<polygon class="st2" points="26.9,38.7 44.7,47.6 62.5,38.7 44.7,29.8 "/>
<polygon class="st2" points="72.3,15.9 90.2,24.9 108,15.9 90.2,7 "/>
<polygon class="st2" points="26.9,15.9 44.7,24.9 62.5,15.9 44.7,7 "/>
<polygon class="st2" points="24.1,65.6 42.5,74.8 42.5,51.4 24.1,42.3 "/>
<polygon class="st1" points="46.9,51.4 46.9,74.8 65.2,65.6 65.2,42.3 "/>
<polygon class="st2" points="69.6,65.6 88,74.8 88,51.4 69.6,42.3 "/>
<polygon class="st1" points="92.4,51.4 92.4,74.8 110.7,65.6 110.7,42.3 "/>
</svg>
