<?xml version="1.0" encoding="utf-8"?>
<!-- Generator: Adobe Illustrator 22.1.0, SVG Export Plug-In . SVG Version: 6.00 Build 0)  -->
<svg version="1.1" id="Calque_1" xmlns="http://www.w3.org/2000/svg" xmlns:xlink="http://www.w3.org/1999/xlink" x="0px" y="0px"
	 viewBox="0 0 949 324" style="enable-background:new 0 0 949 324;" xml:space="preserve">
<style type="text/css">
	.st0{opacity:0.7;}
	.st1{fill:#FFFFFF;}
</style>
<g class="st0">
	<path class="st1" d="M75.9,200.8H37.3l8.3-67.5h17.1l-6.5,52.6h21.5L75.9,200.8z"/>
	<path class="st1" d="M128.7,148.1h-19.9l-1.4,11.6h19.2l-1.8,14.8h-19.3l-1.3,11.3h20.7l-1.9,14.8H85.2l8.3-67.5h37L128.7,148.1z"
		/>
	<path class="st1" d="M179.4,200.8l-3-12.3h-23.5l-5.7,12.3h-18.9l33.4-67.5H181l16.4,67.5H179.4z M170.5,163.2
		c-0.5-2.5-0.9-4-1-4.5c-0.4-2.1-0.5-3.1-0.9-5.7c-0.4,1-0.6,1.8-0.8,2.3c-0.6,1.9-1.4,4-2.2,5.7l-6.3,13.9H173L170.5,163.2z"/>
	<path class="st1" d="M234.3,133.3c11,0,17.4,1.6,22.6,5.6c7,5.3,11.2,14.9,11.2,25.7c0,14.2-6.9,26.8-17.5,32.2
		c-5.5,2.8-12.2,4-23.1,4h-22.2l8.3-67.5H234.3z M229.9,185.9c7.6,0,11.5-1.3,14.8-4.9c3.8-4,5.8-9.7,5.8-16.6
		c0-11.2-4.9-16.2-15.6-16.2h-6.2l-4.6,37.8H229.9z"/>
	<path class="st1" d="M346.4,148.1h-14.2l-6.5,52.6h-17.1l6.6-52.6h-14.6l1.8-14.8h45.8L346.4,148.1z"/>
	<path class="st1" d="M407.5,200.8h-17.1l3.5-28.1h-25l-3.5,28.1h-17l8.3-67.5h17.1l-3.1,24.6h25l3-24.6h17.1L407.5,200.8z"/>
	<path class="st1" d="M466.5,148.1h-19.9l-1.4,11.6h19.2l-1.8,14.8h-19.3l-1.4,11.3h20.7l-1.9,14.8H423l8.3-67.5h37L466.5,148.1z"/>
	<path class="st1" d="M553.9,151.9c-0.2,1.6-0.3,1.7-0.6,1.7c-0.2,0-0.4-0.1-0.6-0.3l-1-0.8c-3.2-2.7-9.4-4.4-14.7-4.4
		c-12.2,0-21.1,8.3-21.1,19.6c0,10.6,7.6,18.2,18.4,18.2c5.5,0,12.7-1.8,14.8-3.7c0.2-0.3,0.5-0.4,0.5-0.4c0.3,0,0.4,0.2,0.4,0.5
		s0,0.5-0.1,1l-1.3,14.7c0,0.5-0.4,0.9-1,1.2c-3.2,1.6-10.6,3-15.8,3c-19.5,0-33.6-14-33.6-33.6c0-20.5,16.2-36.6,37-36.6
		c5.3,0,10.5,1.1,16.1,3.4c3,1.3,4,2.1,4,3.1v0.3L553.9,151.9z"/>
	<path class="st1" d="M619.7,200.8h-17.1l3.5-28.1h-25l-3.5,28.1h-17l8.3-67.5H586l-3.1,24.6h25l3-24.6H628L619.7,200.8z"/>
	<path class="st1" d="M679.9,200.8l-3-12.3h-23.5l-5.7,12.3h-18.9l33.4-67.5h19.3l16.4,67.5H679.9z M671,163.2c-0.5-2.5-0.9-4-1-4.5
		c-0.4-2.1-0.5-3.1-0.9-5.7c-0.4,1-0.6,1.8-0.8,2.3c-0.6,1.9-1.4,4-2.2,5.7l-6.3,13.9h13.8L671,163.2z"/>
	<path class="st1" d="M772.2,200.8h-18.7l-18-30.2c-0.8-1.4-1.8-3.2-2.9-5.3c-2.2-4.2-3.1-6.1-5.4-11.4v3.1c0,4.9-0.2,8.6-0.7,12.8
		l-3.8,31.1h-17.1l8.3-67.5h18.4l19.3,32.6l2.9,5.4l2.6,5.2l1.3,2.5c0-1.3,0-2.2,0.1-2.8c0.1-2.6,0.4-5.9,0.7-8.8l4.2-34.1h17
		L772.2,200.8z"/>
	<path class="st1" d="M856.3,163.3c-0.1,1.9-0.1,3.3-0.2,4.2c-0.3,3.8-0.8,7.2-1.8,10.6c-4.2,15.1-16.4,24-32.8,24
		c-19.7,0-33.4-13.7-33.4-33.3c0-21.4,15.5-36.8,37-36.8c9.4,0,17,2.8,22.7,8.5c3,2.9,4.5,5.3,7.4,11.2l-14.8,5.8
		c-1.9-3.8-3-5.2-4.8-6.9c-3-2.7-6.7-4.1-11.1-4.1c-10.7,0-19,9.4-19,21.9c0,11.2,7.3,19,17.7,19c5,0,9.4-1.9,12.2-5.4
		c1.2-1.4,1.6-2.5,2.4-5.2h-15.6l1.6-13.4H856.3z"/>
	<path class="st1" d="M907.7,148.1h-19.9l-1.4,11.6h19.2l-1.8,14.8h-19.3l-1.4,11.3h20.7l-1.9,14.8h-37.7l8.3-67.5h37L907.7,148.1z"
		/>
</g>
<g>
	<path class="st1" d="M105.2,104.6H88.1l3.5-28.1h-25l-3.5,28.1h-17l8.3-67.5h17.1l-3.1,24.6h25l3-24.6h17.1L105.2,104.6z"/>
	<path class="st1" d="M165.3,104.6l-3-12.3h-23.5l-5.7,12.3h-18.9l33.4-67.5H167l16.4,67.5H165.3z M156.4,66.9c-0.5-2.5-0.9-4-1-4.5
		c-0.4-2.1-0.5-3.1-0.9-5.7c-0.4,1-0.6,1.8-0.8,2.3c-0.6,1.9-1.4,4-2.2,5.7l-6.3,13.9H159L156.4,66.9z"/>
	<path class="st1" d="M244.8,55.7c-0.2,1.6-0.3,1.7-0.6,1.7c-0.2,0-0.4-0.1-0.6-0.3l-1-0.8c-3.2-2.7-9.4-4.4-14.7-4.4
		c-12.2,0-21.1,8.3-21.1,19.6c0,10.6,7.6,18.2,18.4,18.2c5.5,0,12.7-1.8,14.8-3.7c0.2-0.3,0.5-0.4,0.5-0.4c0.3,0,0.4,0.2,0.4,0.5
		s0,0.5-0.1,1l-1.3,14.7c0,0.5-0.4,0.9-1,1.2c-3.2,1.6-10.6,3-15.8,3c-19.5,0-33.6-14-33.6-33.6c0-20.5,16.2-36.6,37-36.6
		c5.3,0,10.5,1.1,16.1,3.4c3,1.3,4,2.1,4,3.1v0.3L244.8,55.7z"/>
	<path class="st1" d="M289.5,71.4l23,33.1H292L277.5,83c-0.3-0.5-0.9-1.5-1.9-3.1c-1.8-3-2.1-3.3-3.2-5.7l-3.8,30.4h-17l8.3-67.5
		h17.1l-3.7,29.6l22.3-29.6h19.7L289.5,71.4z"/>
	<path class="st1" d="M364.9,104.6l-3-12.3h-23.5l-5.7,12.3h-18.9l33.4-67.5h19.3l16.4,67.5H364.9z M356,66.9c-0.5-2.5-0.9-4-1-4.5
		c-0.4-2.1-0.5-3.1-0.9-5.7c-0.4,1-0.6,1.8-0.8,2.3c-0.6,1.9-1.4,4-2.2,5.7l-6.3,13.9h13.8L356,66.9z"/>
	<path class="st1" d="M432.3,51.9h-14.2l-6.5,52.6h-17.1l6.6-52.6h-14.6l1.8-14.8h45.8L432.3,51.9z"/>
	<path class="st1" d="M493.4,104.6h-17.1l3.5-28.1h-25l-3.5,28.1h-17l8.3-67.5h17.1l-3.1,24.6h25l3-24.6h17.1L493.4,104.6z"/>
	<path class="st1" d="M546,106.9c-21.3,0-36.5-14.6-36.5-35.2c0-21.2,16.1-37.1,37.9-37.1c21.1,0,35.5,14,35.5,34.6
		C582.8,91.2,567.5,106.9,546,106.9z M546.9,50.8c-11.4,0-20.1,8.8-20.1,20.4c0,11.2,8,19.4,18.9,19.4c11.2,0,19.6-8.5,19.6-20.2
		C565.4,59.1,557.6,50.8,546.9,50.8z"/>
	<path class="st1" d="M657.1,104.6h-18.7l-18-30.2c-0.8-1.4-1.8-3.2-2.9-5.3c-2.2-4.2-3.1-6.1-5.4-11.4v3.1c0,4.9-0.2,8.6-0.7,12.8
		l-3.8,31.1h-17.1l8.3-67.5h18.4l19.3,32.6l2.9,5.4l2.6,5.2l1.3,2.5c0-1.3,0-2.2,0.1-2.8c0.1-2.6,0.4-5.9,0.7-8.8l4.2-34.1h17
		L657.1,104.6z"/>
	<path class="st1" d="M695.4,104.6l17.1-17.9c4.6-4.8,8.6-9.7,12.3-14.7c0.5-0.8,1.1-1.6,1.7-2.5c2.8-4,4.1-7.9,4.1-11.5
		c0-4.8-3.2-8.8-7.9-8.8c-3.7,0-6.1,1.9-7.2,5.6c-0.5,1.4-0.6,3.2-0.6,5.6h-18.3l0.4-3.6c0.2-2.5,0.8-5,1.8-7.4
		c4.2-9.8,13-15,23.9-15c7.6,0,13.8,2.2,18.7,6.8c5,4.6,7.4,10.3,7.4,17.3c0,4-1,7.9-2.9,11.4c-1.3,2.6-3.8,5.7-7.1,9.4l-9.7,10.5
		h20.4v14.8H695.4z"/>
	<path class="st1" d="M808.7,97.2c-5.2,6.6-12.1,9.9-20.6,9.9c-6.6,0-12.2-2-17-6c-4.4-3.8-7.6-8.9-9.6-15.4
		c-1.4-4.4-2.1-9.4-2.1-14.8c0-10.8,2.6-19.5,7.8-26.3c5.3-6.8,12.1-10.1,20.6-10.1c6.7,0,12.3,2,17.1,6c4.4,3.8,7.6,8.9,9.6,15.4
		c1.3,4.5,2.1,9.5,2.1,15C816.6,81.8,814,90.5,808.7,97.2z M788.1,50.2c-4.4,0-7.5,2.5-9.4,7.6c-1.4,3.4-2,7.7-2,13
		c0,5.1,0.6,9.5,2,13c1.9,5.1,5,7.7,9.3,7.7c4.3,0,7.4-2.6,9.2-7.7c1.3-3.5,1.9-7.8,1.9-13C799.1,57.1,795.4,50.2,788.1,50.2z"/>
	<path class="st1" d="M832.9,104.6V51.9h-9.5V37.1h27.1v67.5H832.9z"/>
	<path class="st1" d="M888,84.8c-2.4-0.1-5.2-0.8-8.5-2c-10.2-3.9-16.1-12.1-16.1-22.9c0-8,3-14.4,8.8-19.1
		c5.3-4.3,12.1-6.5,20.2-6.5c8.3,0,15,2.3,20.3,6.9s7.9,10.3,7.9,17.5c0,8.4-3.4,17-10.3,26l-15,19.8h-19.8l16.2-19.7h-1.4L888,84.8
		z M900.3,51.6c-2.2-2.2-4.8-3.2-7.8-3.2c-3.2,0-5.8,1.1-7.9,3.2s-3.2,4.8-3.2,7.8c0,3.1,1.1,5.7,3.2,7.8s4.8,3.2,7.8,3.2
		c6.2,0,11.2-4.9,11.2-11.1C903.5,56.3,902.4,53.7,900.3,51.6z"/>
</g>
<g>
	<path class="st1" d="M47.9,287.2H35.2l20.1-34.5H35v-9.7h38.2L47.9,287.2z"/>
	<path class="st1" d="M136.6,287.2h-12.3l-11.8-19.8c-0.5-0.9-1.2-2.1-1.9-3.5c-1.5-2.8-2.1-4-3.5-7.5v2c0,3.2-0.1,5.7-0.5,8.4
		l-2.5,20.4H92.9l5.4-44.3h12.1l12.6,21.4l1.9,3.5l1.7,3.4l0.9,1.7c0-0.8,0-1.4,0.1-1.8c0.1-1.7,0.2-3.9,0.5-5.8l2.8-22.4H142
		L136.6,287.2z"/>
	<path class="st1" d="M170.9,288.7c-14,0-24-9.6-24-23.1c0-13.9,10.6-24.3,24.9-24.3c13.9,0,23.3,9.2,23.3,22.7
		C195.1,278.5,185,288.7,170.9,288.7z M171.6,251.9c-7.5,0-13.2,5.8-13.2,13.4c0,7.4,5.3,12.8,12.4,12.8c7.4,0,12.9-5.6,12.9-13.2
		C183.7,257.4,178.5,251.9,171.6,251.9z"/>
	<path class="st1" d="M219.8,287.2h-9.5l-11.6-44.3h11.9l5.1,20.2c0.8,3.4,1.1,4.4,1.4,8.1c0.4-1,0.6-1.7,0.8-2.2
		c0.4-1,1.2-2.8,1.8-3.8l11.3-22.2h12.6L219.8,287.2z"/>
	<path class="st1" d="M271.7,252.7h-13l-0.9,7.6h12.6l-1.2,9.7h-12.6l-0.9,7.4h13.6l-1.2,9.7h-24.7l5.4-44.3h24.3L271.7,252.7z"/>
	<path class="st1" d="M318.8,287.2l-0.5-19.8v-1.5c0-0.8,0-1.6,0.1-2.4c0.1-1.5,0.2-2.5,0.5-4.9c-0.4,0.9-0.6,1.6-0.8,2.1
		c-0.6,1.5-1.5,3.6-2.4,5.2l-10.9,21.4h-5.9l-3.8-17.1c-0.4-1.6-0.6-3-0.8-4.3c-0.4-2.2-0.6-4-1-8c-0.2,1.4-0.5,2.4-0.6,3
		c-0.6,3.1-1.2,5.1-1.8,7.1l-5.7,19.2h-11.6l14-44.3h11.1l3.4,14.9c0.2,1,0.5,2.3,0.8,3.9c0.6,3.2,0.8,4.3,1.2,7.7
		c0.4-1,0.6-1.8,0.8-2.2c0.1-0.2,0.3-0.7,0.6-1.5c0.5-1.2,0.9-1.9,1.1-2.4l10.5-20.5h11.6l1.4,44.3H318.8z"/>
	<path class="st1" d="M357.4,242.9c4.6,0,7.3,0.4,9.2,1.4c3,1.6,4.8,4.8,4.8,9c0,3.3-1,6-3,8c-1.1,1.1-1.9,1.7-4.3,2.8
		c2.8,0.7,3.9,1.2,5.2,2.2c2.1,1.7,3,4,3,7.3c0,5-2.4,9.1-6.7,11.5c-2.6,1.5-5.1,1.9-10.3,1.9h-17.6l5.4-44.3H357.4z M353.1,278.4
		c5.1,0,7.9-1.9,7.9-5.5c0-2.8-2.1-4.2-6.3-4.2h-3.4l-1.1,9.7H353.1z M356.2,260.6c2.7,0,4.7-1.9,4.7-4.8c0-2.5-1.5-4.1-3.9-4.1
		h-3.5l-1.1,8.9H356.2z"/>
	<path class="st1" d="M402.2,287.2l-10.6-17.5l-2.1,17.5h-11.2l5.4-44.3h14.4c10.5,0,15.6,4.4,15.6,13.5c0,4.7-1.2,7.9-3.9,10.5
		c-1.4,1.4-2.6,2-5.5,3.2l10.9,17.2H402.2z M394.4,262.5c4.7,0,8-2.2,8-5.6c0-2.9-2.3-4.5-6.4-4.5h-2.1l-1.4,10.1H394.4z"/>
	<path class="st1" d="M449.6,252.7h-13l-0.9,7.6h12.6L447,270h-12.6l-0.9,7.4h13.6l-1.2,9.7h-24.7l5.4-44.3h24.3L449.6,252.7z"/>
	<path class="st1" d="M468.5,287.2l11.2-11.8c3-3.1,5.7-6.4,8.1-9.6c0.4-0.5,0.7-1.1,1.1-1.7c1.8-2.7,2.7-5.2,2.7-7.6
		c0-3.1-2.1-5.8-5.2-5.8c-2.4,0-4,1.2-4.7,3.7c-0.3,0.9-0.4,2.1-0.4,3.7h-12l0.2-2.4c0.1-1.7,0.5-3.2,1.2-4.8
		c2.8-6.4,8.6-9.9,15.7-9.9c5,0,9,1.5,12.3,4.5c3.2,3,4.8,6.8,4.8,11.3c0,2.7-0.6,5.2-1.9,7.5c-0.9,1.7-2.5,3.7-4.7,6.1l-6.4,6.9
		h13.4v9.7H468.5z"/>
	<path class="st1" d="M542.9,282.4c-3.4,4.3-7.9,6.5-13.5,6.5c-4.3,0-8-1.3-11.2-4c-2.9-2.5-5-5.8-6.3-10.1
		c-0.9-2.9-1.4-6.1-1.4-9.7c0-7.1,1.7-12.8,5.1-17.2c3.5-4.4,8-6.6,13.5-6.6c4.4,0,8.1,1.3,11.2,4c2.9,2.5,5,5.8,6.3,10.1
		c0.9,3,1.4,6.3,1.4,9.9C548.1,272.3,546.3,278,542.9,282.4z M529.4,251.5c-2.9,0-4.9,1.7-6.1,5c-0.9,2.2-1.3,5.1-1.3,8.6
		c0,3.4,0.4,6.3,1.3,8.6c1.2,3.4,3.3,5.1,6.1,5.1c2.8,0,4.8-1.7,6-5.1c0.8-2.3,1.2-5.1,1.2-8.6C536.6,256.1,534.2,251.5,529.4,251.5
		z"/>
	<path class="st1" d="M558.7,287.2v-34.5h-6.3v-9.7h17.8v44.3H558.7z"/>
	<path class="st1" d="M594.9,274.2c-1.6-0.1-3.4-0.5-5.6-1.3c-6.7-2.5-10.6-7.9-10.6-15c0-5.3,1.9-9.4,5.8-12.5
		c3.5-2.8,7.9-4.3,13.2-4.3c5.4,0,9.9,1.5,13.3,4.5c3.5,3,5.2,6.8,5.2,11.5c0,5.5-2.2,11.2-6.7,17.1l-9.9,13h-13l10.6-12.9h-0.9
		L594.9,274.2z M603,252.4c-1.4-1.4-3.1-2.1-5.1-2.1c-2.1,0-3.8,0.7-5.2,2.1c-1.4,1.4-2.1,3.1-2.1,5.1s0.7,3.7,2.1,5.1
		c1.4,1.4,3.1,2.1,5.1,2.1c4.1,0,7.3-3.2,7.3-7.3C605.1,255.5,604.4,253.8,603,252.4z"/>
	<path class="st1" d="M690.7,285.4c-0.1,0.8-0.2,1.1-0.3,1.2c-0.8,1.3-5.7,2.6-10,2.6c-14.2,0-23.9-9.4-23.9-23.2
		c0-14.3,10.7-24.7,25.6-24.7c3.5,0,7.1,0.6,10.4,1.8c1.7,0.6,3.2,1.4,4.6,2.2c0.4,0.3,0.5,0.4,0.5,0.8c0,0.2-0.1,0.5-0.2,1.1
		l-1.5,7.4c-0.2,1.2-0.2,1.3-0.6,1.3c-0.2,0-0.5-0.1-1.7-0.8c-2.6-1.6-6.7-2.7-10.2-2.7c-8.1,0-13.8,5.4-13.8,13.1
		c0,7.1,5,12.3,11.9,12.3c1.4,0,2.9-0.2,4.4-0.5c2.4-0.5,4.4-1.1,5.3-1.5c0.2-0.1,0.4-0.2,0.5-0.2s0.2,0.2,0.2,0.5
		c0,0.1,0,0.4-0.1,0.9L690.7,285.4z M740.2,286.7c0,0.4-0.2,0.5-0.5,0.5h-10.2c-0.4,0-0.7-0.2-0.8-0.6l-1.6-6.2
		c-0.1-0.4-0.5-0.7-0.9-0.7h-14.4c-0.6,0-0.9,0.1-1.2,0.7l-3,6.1c-0.2,0.5-0.6,0.7-1.4,0.7h-11.5c-0.2,0-0.4-0.2-0.4-0.5
		c0-0.1,0.1-0.3,0.1-0.5l21-42.5c0.4-0.7,0.5-0.8,1.4-0.8h13.6c0.6,0,0.8,0.2,1,0.9l8.8,42.6V286.7z M724.2,269.8
		c0.4,0,0.6-0.1,0.6-0.2s-0.1-0.3-0.1-0.5l-3-12.6c-0.1-0.4-0.2-0.6-0.3-0.6c-0.1,0-0.2,0.2-0.3,0.4l-5.7,13
		c-0.1,0.2-0.1,0.3-0.1,0.4c0,0.1,0.2,0.2,0.4,0.2H724.2z M788.6,286.5c-0.1,0.5-0.4,0.7-1.1,0.7h-10.2c-0.7,0-1.1-0.2-1.4-0.8
		l-14.5-25.5c-0.2-0.4-0.4-0.6-0.5-0.6c-0.1,0.4-0.1,0.4-0.2,0.8l-3.5,25.3c-0.1,0.6-0.3,0.8-0.9,0.8h-9.9c-0.9,0-1-0.1-1-0.6
		c0-0.1,0-0.2,0.1-0.2l5.7-42.7c0.1-0.5,0.4-0.8,1-0.8h11.2c0.8,0,0.9,0.1,1.4,0.8l13.2,23.2c0.2,0.4,0.5,0.6,0.6,0.6
		c0.1,0,0.2-0.4,0.2-0.9l3.2-22.9c0.1-0.7,0.3-0.9,1.1-0.9h10.5c0.6,0,0.8,0.1,0.8,0.7v0.2L788.6,286.5z M839.2,286.3
		c0.1,0.2,0.1,0.4,0.1,0.6c0,0.3-0.2,0.4-0.7,0.4h-10.1c-0.7,0-1-0.2-1.1-0.8l-1.1-5.7c-0.2-0.8-0.4-0.9-1.2-0.9h-13.6
		c-0.8,0-0.9,0.1-1.2,0.7l-3.2,6.2c-0.2,0.5-0.6,0.6-1.2,0.6h-11.3c-0.3,0-0.5-0.1-0.5-0.3c0-0.1,0.1-0.3,0.1-0.5l20.9-42.7
		c0.4-0.7,0.6-0.8,1.4-0.8h13c0.7,0,0.9,0.1,1.1,0.9L839.2,286.3z M823.2,269.8c0.4,0,0.6-0.2,0.6-0.4c0-0.2,0-0.4-0.1-0.6
		l-2.8-12.9c-0.1-0.3-0.2-0.5-0.3-0.5c-0.2,0.2-0.2,0.2-0.3,0.5l-5.8,13.1c-0.1,0.2-0.1,0.4-0.1,0.5c0,0.2,0.2,0.4,0.8,0.4H823.2z
		 M870.3,286.5c-0.1,0.5-0.3,0.7-0.9,0.7h-24.8c-0.4,0-0.5-0.1-0.5-0.5v-0.3l6.1-42.6c0.1-0.7,0.3-0.9,0.8-0.9h11.2
		c0.5,0,0.6,0.1,0.6,0.5v0.2l-4.4,32.8v0.1c0,0.5,0.2,0.6,0.6,0.6h11.9c0.5,0,0.6,0.1,0.6,0.6v0.2L870.3,286.5z M919.4,269
		c0,0.4-0.2,0.7-0.6,0.7h-15.6c-0.6,0-0.8,0.1-0.8,0.8v15.9c0,0.6-0.1,0.8-0.6,0.8h-12.1c-0.4,0-0.6-0.3-0.6-0.7v-15.9
		c0-0.6-0.2-0.9-0.8-0.9h-15.7c-0.5,0-0.7-0.3-0.7-0.8v-12c0-0.5,0.2-0.7,0.6-0.7h15.8c0.5,0,0.7-0.2,0.7-0.8v-13.6
		c0-0.4,0.2-0.6,0.6-0.6h12c0.5,0,0.7,0.2,0.7,0.6v13.6c0,0.6,0.1,0.8,0.7,0.8h15.8c0.5,0,0.6,0.2,0.6,0.8V269z"/>
</g>
</svg>
