<?xml version="1.0" encoding="utf-8"?>
<!-- Generator: Adobe Illustrator 22.1.0, SVG Export Plug-In . SVG Version: 6.00 Build 0)  -->
<svg version="1.1" id="Calque_1" xmlns="http://www.w3.org/2000/svg" xmlns:xlink="http://www.w3.org/1999/xlink" x="0px" y="0px"
	 viewBox="0 0 455.4 113.8" style="enable-background:new 0 0 455.4 113.8;" xml:space="preserve">
<style type="text/css">
	.st0{fill:#4AC0C1;}
	.st1{fill:#010100;}
	.st2{fill:#FFFFFF;}
	.st3{opacity:0.7;}
	.st4{opacity:0.7;fill:#FFFFFF;}
	.st5{fill:#161615;}
	.st6{display:none;fill:#4AC0C1;}
</style>
<g>
	<rect x="0.7" y="1.7" class="st6" width="453.5" height="113.4"/>
	<polygon class="st4" points="75.4,56.9 93.3,65.8 111.1,56.9 93.3,48 	"/>
	<polygon class="st2" points="98.2,45.5 113.8,53.3 113.8,37.7 	"/>
	<polygon class="st4" points="52.7,45.5 70.5,54.4 88.3,45.5 70.5,36.6 	"/>
	<polygon class="st4" points="27.2,37.7 27.2,53.3 42.8,45.5 	"/>
	<polygon class="st4" points="29.9,56.9 47.8,65.8 65.6,56.9 47.8,48 	"/>
	<polygon class="st4" points="75.4,34.2 93.3,43.1 111.1,34.2 93.3,25.2 	"/>
	<polygon class="st4" points="29.9,34.2 47.8,43.1 65.6,34.2 47.8,25.2 	"/>
	<polygon class="st4" points="27.2,83.8 45.6,93 45.6,69.6 27.2,60.5 	"/>
	<polygon class="st2" points="50,69.6 50,93 68.3,83.8 68.3,60.5 	"/>
	<polygon class="st4" points="72.7,83.8 91.1,93 91.1,69.6 72.7,60.5 	"/>
	<polygon class="st2" points="95.5,69.6 95.5,93 113.8,83.8 113.8,60.5 	"/>
	<g>
		<g class="st3">
			<path class="st2" d="M146.7,87.5h-12.9l2.8-22.5h5.7l-2.2,17.5h7.2L146.7,87.5z"/>
			<path class="st2" d="M164.3,70h-6.6l-0.5,3.9h6.4l-0.6,5h-6.4l-0.5,3.8h6.9l-0.6,5h-12.6l2.8-22.5h12.3L164.3,70z"/>
			<path class="st2" d="M181.2,87.5l-1-4.1h-7.8l-1.9,4.1h-6.3L175.3,65h6.4l5.5,22.5H181.2z M178.2,75c-0.2-0.8-0.3-1.3-0.3-1.5
				c-0.1-0.7-0.2-1-0.3-1.9c-0.1,0.3-0.2,0.6-0.3,0.8c-0.2,0.6-0.5,1.3-0.8,1.9l-2.1,4.7h4.6L178.2,75z"/>
			<path class="st2" d="M199.5,65c3.7,0,5.8,0.5,7.5,1.9c2.3,1.8,3.7,5,3.7,8.6c0,4.7-2.3,8.9-5.8,10.7c-1.8,0.9-4.1,1.3-7.7,1.3
				h-7.4l2.8-22.5H199.5z M198,82.6c2.5,0,3.8-0.4,5-1.6c1.3-1.3,1.9-3.2,1.9-5.5c0-3.7-1.6-5.4-5.2-5.4h-2.1l-1.5,12.6H198z"/>
			<path class="st2" d="M236.9,70h-4.7L230,87.5h-5.7l2.2-17.5h-4.9l0.6-5h15.3L236.9,70z"/>
			<path class="st2" d="M257.2,87.5h-5.7l1.2-9.4h-8.3l-1.2,9.4h-5.7l2.8-22.5h5.7l-1,8.2h8.3l1-8.2h5.7L257.2,87.5z"/>
			<path class="st2" d="M276.9,70h-6.6l-0.5,3.9h6.4l-0.6,5h-6.4l-0.5,3.8h6.9l-0.6,5h-12.6l2.8-22.5h12.3L276.9,70z"/>
			<path class="st2" d="M306,71.2c-0.1,0.5-0.1,0.6-0.2,0.6c-0.1,0-0.1,0-0.2-0.1l-0.3-0.3c-1.1-0.9-3.1-1.5-4.9-1.5
				c-4.1,0-7,2.8-7,6.5c0,3.5,2.5,6.1,6.1,6.1c1.8,0,4.2-0.6,5-1.2c0.1-0.1,0.2-0.1,0.2-0.1c0.1,0,0.1,0.1,0.1,0.2s0,0.2,0,0.3
				l-0.4,4.9c0,0.1-0.1,0.3-0.3,0.4c-1.1,0.5-3.5,1-5.3,1c-6.5,0-11.2-4.7-11.2-11.2c0-6.8,5.4-12.2,12.3-12.2
				c1.8,0,3.5,0.4,5.4,1.1c1,0.4,1.3,0.7,1.3,1v0.1L306,71.2z"/>
			<path class="st2" d="M328,87.5h-5.7l1.2-9.4h-8.3l-1.2,9.4h-5.7L311,65h5.7l-1,8.2h8.3l1-8.2h5.7L328,87.5z"/>
			<path class="st2" d="M348,87.5l-1-4.1h-7.8l-1.9,4.1H331L342.1,65h6.4l5.5,22.5H348z M345,75c-0.2-0.8-0.3-1.3-0.3-1.5
				c-0.1-0.7-0.2-1-0.3-1.9c-0.1,0.3-0.2,0.6-0.3,0.8c-0.2,0.6-0.5,1.3-0.8,1.9l-2.1,4.7h4.6L345,75z"/>
			<path class="st2" d="M378.8,87.5h-6.2l-6-10.1c-0.3-0.5-0.6-1.1-1-1.8c-0.8-1.4-1-2-1.8-3.8v1c0,1.7-0.1,2.9-0.2,4.3l-1.3,10.4
				h-5.7l2.8-22.5h6.1l6.4,10.9l1,1.8l0.9,1.7l0.4,0.8c0-0.4,0-0.7,0-0.9c0-0.9,0.1-2,0.2-2.9l1.4-11.4h5.7L378.8,87.5z"/>
			<path class="st2" d="M406.8,75c0,0.6,0,1.1-0.1,1.4c-0.1,1.3-0.3,2.4-0.6,3.5c-1.4,5-5.5,8-10.9,8c-6.6,0-11.1-4.6-11.1-11.1
				c0-7.1,5.2-12.3,12.3-12.3c3.2,0,5.7,0.9,7.6,2.8c1,1,1.5,1.8,2.5,3.8l-4.9,1.9c-0.6-1.3-1-1.7-1.6-2.3c-1-0.9-2.2-1.4-3.7-1.4
				c-3.6,0-6.3,3.1-6.3,7.3c0,3.7,2.4,6.3,5.9,6.3c1.7,0,3.1-0.6,4.1-1.8c0.4-0.5,0.5-0.8,0.8-1.7h-5.2L396,75H406.8z"/>
			<path class="st2" d="M424,70h-6.6l-0.5,3.9h6.4l-0.6,5h-6.4l-0.5,3.8h6.9l-0.6,5h-12.6l2.8-22.5h12.3L424,70z"/>
		</g>
		<g>
			<path class="st2" d="M156.5,55.4h-5.7l1.2-9.4h-8.3l-1.2,9.4h-5.7l2.8-22.5h5.7l-1,8.2h8.3l1-8.2h5.7L156.5,55.4z"/>
			<path class="st2" d="M176.5,55.4l-1-4.1h-7.8l-1.9,4.1h-6.3l11.1-22.5h6.4l5.5,22.5H176.5z M173.5,42.9c-0.2-0.8-0.3-1.3-0.3-1.5
				c-0.1-0.7-0.2-1-0.3-1.9c-0.1,0.3-0.2,0.6-0.3,0.8c-0.2,0.6-0.5,1.3-0.8,1.9l-2.1,4.7h4.6L173.5,42.9z"/>
			<path class="st2" d="M203,39.1c-0.1,0.5-0.1,0.6-0.2,0.6c-0.1,0-0.1,0-0.2-0.1l-0.3-0.3c-1.1-0.9-3.1-1.5-4.9-1.5
				c-4.1,0-7,2.8-7,6.5c0,3.5,2.5,6.1,6.1,6.1c1.8,0,4.2-0.6,5-1.2c0.1-0.1,0.2-0.1,0.2-0.1c0.1,0,0.1,0.1,0.1,0.2s0,0.2,0,0.3
				l-0.4,4.9c0,0.1-0.1,0.3-0.3,0.4c-1.1,0.5-3.5,1-5.3,1c-6.5,0-11.2-4.7-11.2-11.2c0-6.8,5.4-12.2,12.3-12.2
				c1.8,0,3.5,0.4,5.4,1.1c1,0.4,1.3,0.7,1.3,1v0.1L203,39.1z"/>
			<path class="st2" d="M217.9,44.4l7.7,11h-6.8l-4.8-7.2c-0.1-0.2-0.3-0.5-0.6-1c-0.6-1-0.7-1.1-1.1-1.9l-1.3,10.1h-5.7l2.8-22.5
				h5.7l-1.2,9.9l7.4-9.9h6.6L217.9,44.4z"/>
			<path class="st2" d="M243,55.4l-1-4.1h-7.8l-1.9,4.1H226l11.1-22.5h6.4l5.5,22.5H243z M240,42.9c-0.2-0.8-0.3-1.3-0.3-1.5
				c-0.1-0.7-0.2-1-0.3-1.9c-0.1,0.3-0.2,0.6-0.3,0.8c-0.2,0.6-0.5,1.3-0.8,1.9l-2.1,4.7h4.6L240,42.9z"/>
			<path class="st2" d="M265.5,37.9h-4.7l-2.2,17.5h-5.7l2.2-17.5h-4.9l0.6-5h15.3L265.5,37.9z"/>
			<path class="st2" d="M285.8,55.4h-5.7l1.2-9.4H273l-1.2,9.4h-5.7l2.8-22.5h5.7l-1,8.2h8.3l1-8.2h5.7L285.8,55.4z"/>
			<path class="st2" d="M303.4,56.2c-7.1,0-12.2-4.9-12.2-11.7c0-7.1,5.4-12.4,12.6-12.4c7,0,11.8,4.7,11.8,11.5
				C315.7,51,310.5,56.2,303.4,56.2z M303.7,37.5c-3.8,0-6.7,2.9-6.7,6.8c0,3.8,2.7,6.5,6.3,6.5c3.8,0,6.5-2.8,6.5-6.7
				C309.8,40.3,307.2,37.5,303.7,37.5z"/>
			<path class="st2" d="M340.4,55.4h-6.2l-6-10.1c-0.3-0.5-0.6-1.1-1-1.8c-0.8-1.4-1-2-1.8-3.8v1c0,1.7-0.1,2.9-0.2,4.3l-1.3,10.4
				h-5.7l2.8-22.5h6.1l6.4,10.9l1,1.8l0.9,1.7l0.4,0.8c0-0.4,0-0.7,0-0.9c0-0.9,0.1-2,0.2-2.9l1.4-11.4h5.7L340.4,55.4z"/>
			<path class="st2" d="M353.2,55.4l5.7-6c1.5-1.6,2.9-3.2,4.1-4.9c0.2-0.3,0.4-0.5,0.6-0.8c0.9-1.4,1.4-2.6,1.4-3.8
				c0-1.6-1.1-2.9-2.6-2.9c-1.2,0-2,0.6-2.4,1.9c-0.1,0.5-0.2,1-0.2,1.9h-6.1l0.1-1.2c0.1-0.8,0.3-1.7,0.6-2.5c1.4-3.3,4.3-5,8-5
				c2.5,0,4.6,0.8,6.2,2.3c1.7,1.5,2.5,3.5,2.5,5.8c0,1.4-0.3,2.6-1,3.8c-0.4,0.9-1.3,1.9-2.4,3.1l-3.2,3.5h6.8v5H353.2z"/>
			<path class="st2" d="M390.9,53c-1.7,2.2-4,3.3-6.9,3.3c-2.2,0-4.1-0.7-5.7-2c-1.5-1.3-2.5-3-3.2-5.1c-0.5-1.5-0.7-3.1-0.7-4.9
				c0-3.6,0.9-6.5,2.6-8.8c1.8-2.2,4-3.4,6.9-3.4c2.2,0,4.1,0.7,5.7,2c1.5,1.3,2.5,3,3.2,5.1c0.5,1.5,0.7,3.2,0.7,5
				C393.6,47.8,392.7,50.8,390.9,53z M384.1,37.3c-1.5,0-2.5,0.8-3.1,2.5c-0.5,1.1-0.7,2.6-0.7,4.3c0,1.7,0.2,3.2,0.7,4.3
				c0.6,1.7,1.7,2.6,3.1,2.6c1.4,0,2.5-0.9,3.1-2.6c0.4-1.2,0.6-2.6,0.6-4.3C387.8,39.6,386.5,37.3,384.1,37.3z"/>
			<path class="st2" d="M399,55.4V37.9h-3.2v-5h9v22.5H399z"/>
			<path class="st2" d="M417.4,48.8c-0.8,0-1.7-0.3-2.9-0.7c-3.4-1.3-5.4-4-5.4-7.6c0-2.7,1-4.8,2.9-6.4c1.8-1.4,4-2.2,6.7-2.2
				c2.8,0,5,0.8,6.8,2.3c1.8,1.5,2.6,3.4,2.6,5.8c0,2.8-1.1,5.7-3.4,8.7l-5,6.6h-6.6l5.4-6.6h-0.5L417.4,48.8z M421.5,37.8
				c-0.7-0.7-1.6-1.1-2.6-1.1c-1,0-1.9,0.4-2.6,1.1c-0.7,0.7-1.1,1.6-1.1,2.6c0,1,0.4,1.9,1.1,2.6c0.7,0.7,1.6,1.1,2.6,1.1
				c2.1,0,3.7-1.6,3.7-3.7C422.6,39.4,422.2,38.5,421.5,37.8z"/>
		</g>
	</g>
</g>
</svg>
