<?xml version="1.0" encoding="utf-8"?>
<!-- Generator: Adobe Illustrator 22.1.0, SVG Export Plug-In . SVG Version: 6.00 Build 0)  -->
<svg version="1.1" xmlns="http://www.w3.org/2000/svg" xmlns:xlink="http://www.w3.org/1999/xlink" x="0px" y="0px"
	 viewBox="0 0 136.1 192.8" style="enable-background:new 0 0 136.1 192.8;" xml:space="preserve">
<style type="text/css">
	.st1{fill:#010100;}
	.st2{fill:#FFFFFF;}
	.st3{opacity:0.7;}
	.st4{opacity:0.7;fill:#FFFFFF;}
	.st5{fill:#161615;}
</style>
<g id="Calque_1">
	<g>
		<polygon class="st4" points="71.9,60.7 89.7,69.6 107.6,60.7 89.7,51.8 		"/>
		<polygon class="st2" points="94.7,49.3 110.3,57.1 110.3,41.5 		"/>
		<polygon class="st4" points="49.2,49.3 67,58.2 84.8,49.3 67,40.4 		"/>
		<polygon class="st4" points="23.7,41.5 23.7,57.1 39.3,49.3 		"/>
		<polygon class="st4" points="26.4,60.7 44.2,69.6 62.1,60.7 44.2,51.8 		"/>
		<polygon class="st4" points="71.9,37.9 89.7,46.8 107.6,37.9 89.7,29 		"/>
		<polygon class="st4" points="26.4,37.9 44.2,46.8 62.1,37.9 44.2,29 		"/>
		<polygon class="st4" points="23.7,87.6 42,96.7 42,73.4 23.7,64.2 		"/>
		<polygon class="st2" points="46.4,73.4 46.4,96.7 64.8,87.6 64.8,64.2 		"/>
		<polygon class="st4" points="69.2,87.6 87.5,96.7 87.5,73.4 69.2,64.2 		"/>
		<polygon class="st2" points="91.9,73.4 91.9,96.7 110.3,87.6 110.3,64.2 		"/>
		<g>
			<g class="st3">
				<path class="st2" d="M15.6,165.4l7.9-8.3c2.1-2.2,4-4.5,5.7-6.8c0.2-0.4,0.5-0.7,0.8-1.2c1.3-1.9,1.9-3.7,1.9-5.3
					c0-2.2-1.5-4.1-3.7-4.1c-1.7,0-2.8,0.9-3.3,2.6c-0.2,0.6-0.3,1.5-0.3,2.6h-8.4l0.2-1.7c0.1-1.2,0.4-2.3,0.8-3.4
					c2-4.5,6-6.9,11-6.9c3.5,0,6.3,1,8.6,3.2c2.3,2.1,3.4,4.8,3.4,8c0,1.9-0.5,3.7-1.3,5.3c-0.6,1.2-1.7,2.6-3.3,4.3l-4.5,4.9h9.4
					v6.8H15.6z"/>
				<path class="st2" d="M67.9,162c-2.4,3-5.6,4.6-9.5,4.6c-3,0-5.6-0.9-7.8-2.8c-2-1.7-3.5-4.1-4.4-7.1c-0.6-2-1-4.3-1-6.8
					c0-5,1.2-9,3.6-12.1c2.4-3.1,5.6-4.6,9.5-4.6c3.1,0,5.7,0.9,7.9,2.8c2,1.7,3.5,4.1,4.4,7.1c0.6,2.1,1,4.4,1,6.9
					C71.5,154.9,70.3,159,67.9,162z M58.4,140.4c-2,0-3.4,1.2-4.3,3.5c-0.6,1.6-0.9,3.6-0.9,6c0,2.4,0.3,4.4,0.9,6
					c0.9,2.4,2.3,3.6,4.3,3.6c2,0,3.4-1.2,4.2-3.6c0.6-1.6,0.9-3.6,0.9-6C63.5,143.6,61.8,140.4,58.4,140.4z"/>
				<path class="st2" d="M79.1,165.4v-24.3h-4.4v-6.8h12.5v31.1H79.1z"/>
				<path class="st2" d="M104.5,156.3c-1.1,0-2.4-0.4-3.9-0.9c-4.7-1.8-7.4-5.6-7.4-10.5c0-3.7,1.4-6.6,4.1-8.8c2.4-2,5.6-3,9.3-3
					c3.8,0,6.9,1.1,9.4,3.2c2.4,2.1,3.7,4.8,3.7,8.1c0,3.9-1.6,7.8-4.7,12l-6.9,9.1h-9.1l7.5-9.1h-0.6L104.5,156.3z M110.1,141
					c-1-1-2.2-1.5-3.6-1.5c-1.5,0-2.7,0.5-3.7,1.5s-1.5,2.2-1.5,3.6s0.5,2.6,1.5,3.6s2.2,1.5,3.6,1.5c2.9,0,5.1-2.2,5.1-5.1
					C111.6,143.2,111.1,142,110.1,141z"/>
			</g>
			<polygon class="st2" points="25.1,127 22.1,127 22.8,122.2 18.5,122.2 17.8,127 14.9,127 16.3,115.4 19.3,115.4 18.8,119.7 
				23.1,119.7 23.6,115.4 26.5,115.4 			"/>
			<g>
				<path class="st2" d="M33.8,120.6c-0.1-0.4-0.2-0.7-0.2-0.8c-0.1-0.4-0.1-0.5-0.2-1c-0.1,0.2-0.1,0.3-0.1,0.4
					c-0.1,0.3-0.2,0.7-0.4,1l-1.1,2.4h2.4L33.8,120.6z M35.4,127l-0.5-2.1h-4l-1,2.1h-3.2l5.7-11.6h3.3l2.8,11.6H35.4z"/>
				<path class="st2" d="M49,118.6c0,0.3,0,0.3-0.1,0.3l-0.1,0l-0.2-0.1C48,118.3,47,118,46,118c-2.1,0-3.6,1.4-3.6,3.4
					c0,1.8,1.3,3.1,3.2,3.1c0.9,0,2.2-0.3,2.6-0.6l0.1-0.1l0.1,0.1l0,0.2l-0.2,2.5l-0.2,0.2c-0.6,0.3-1.8,0.5-2.7,0.5
					c-3.4,0-5.8-2.4-5.8-5.8c0-3.5,2.8-6.3,6.4-6.3c0.9,0,1.8,0.2,2.8,0.6c0.5,0.2,0.7,0.4,0.7,0.5v0L49,118.6z"/>
				<path class="st2" d="M56.6,121.3l4,5.7H57l-2.5-3.7c0-0.1-0.2-0.3-0.3-0.5c-0.3-0.5-0.4-0.6-0.6-1L53,127h-2.9l1.4-11.6h2.9
					l-0.6,5.1l3.8-5.1H61L56.6,121.3z"/>
				<path class="st2" d="M68.6,120.6c-0.1-0.4-0.2-0.7-0.2-0.8c-0.1-0.4-0.1-0.5-0.2-1c-0.1,0.2-0.1,0.3-0.1,0.4
					c-0.1,0.3-0.2,0.7-0.4,1l-1.1,2.4H69L68.6,120.6z M70.1,127l-0.5-2.1h-4l-1,2.1h-3.2l5.7-11.6h3.3l2.8,11.6H70.1z"/>
			</g>
			<polygon class="st2" points="81.7,118 79.3,118 78.2,127 75.2,127 76.4,118 73.9,118 74.2,115.4 82,115.4 			"/>
			<polygon class="st2" points="92.2,127 89.3,127 89.9,122.2 85.6,122.2 85,127 82,127 83.5,115.4 86.4,115.4 85.9,119.7 
				90.2,119.7 90.7,115.4 93.6,115.4 			"/>
			<g>
				<path class="st2" d="M101.3,117.8c-2,0-3.5,1.5-3.5,3.5c0,1.9,1.4,3.3,3.2,3.3c1.9,0,3.4-1.5,3.4-3.5
					C104.5,119.2,103.1,117.8,101.3,117.8 M101.1,127.4c-3.7,0-6.3-2.5-6.3-6c0-3.7,2.8-6.4,6.5-6.4c3.6,0,6.1,2.4,6.1,6
					C107.5,124.7,104.8,127.4,101.1,127.4"/>
				<path class="st2" d="M120.2,127H117l-3.1-5.2c-0.1-0.2-0.3-0.5-0.5-0.9c-0.4-0.7-0.5-1.1-0.9-2v0.5c0,0.9,0,1.5-0.1,2.2
					l-0.6,5.4h-2.9l1.4-11.6h3.2l3.3,5.6l0.5,0.9l0.4,0.9l0.2,0.4c0-0.2,0-0.4,0-0.5c0-0.4,0.1-1,0.1-1.5l0.7-5.9h2.9L120.2,127z"/>
			</g>
			<g class="st3">
				<path class="st2" d="M18.7,181.4h-4.8l1-8.4H17l-0.8,6.6h2.7L18.7,181.4z"/>
				<path class="st2" d="M25.3,174.9h-2.5l-0.2,1.4H25l-0.2,1.8h-2.4l-0.2,1.4h2.6l-0.2,1.8h-4.7l1-8.4h4.6L25.3,174.9z"/>
				<path class="st2" d="M31.6,181.4l-0.4-1.5h-2.9l-0.7,1.5h-2.4l4.2-8.4h2.4l2,8.4H31.6z M30.5,176.7c-0.1-0.3-0.1-0.5-0.1-0.6
					c0-0.3-0.1-0.4-0.1-0.7c0,0.1-0.1,0.2-0.1,0.3c-0.1,0.2-0.2,0.5-0.3,0.7l-0.8,1.7h1.7L30.5,176.7z"/>
				<path class="st2" d="M38.4,173c1.4,0,2.2,0.2,2.8,0.7c0.9,0.7,1.4,1.9,1.4,3.2c0,1.8-0.9,3.3-2.2,4c-0.7,0.3-1.5,0.5-2.9,0.5
					h-2.8l1-8.4H38.4z M37.9,179.6c0.9,0,1.4-0.2,1.8-0.6c0.5-0.5,0.7-1.2,0.7-2.1c0-1.4-0.6-2-1.9-2h-0.8l-0.6,4.7H37.9z"/>
				<path class="st2" d="M52.4,174.9h-1.8l-0.8,6.6h-2.1l0.8-6.6h-1.8l0.2-1.8h5.7L52.4,174.9z"/>
				<path class="st2" d="M60,181.4h-2.1l0.4-3.5h-3.1l-0.4,3.5h-2.1l1-8.4h2.1l-0.4,3.1h3.1l0.4-3.1H61L60,181.4z"/>
				<path class="st2" d="M67.3,174.9h-2.5l-0.2,1.4H67l-0.2,1.8h-2.4l-0.2,1.4h2.6l-0.2,1.8h-4.7l1-8.4h4.6L67.3,174.9z"/>
				<path class="st2" d="M78.2,175.3c0,0.2,0,0.2-0.1,0.2c0,0,0,0-0.1,0l-0.1-0.1c-0.4-0.3-1.2-0.5-1.8-0.5c-1.5,0-2.6,1-2.6,2.4
					c0,1.3,1,2.3,2.3,2.3c0.7,0,1.6-0.2,1.8-0.5c0,0,0.1,0,0.1,0c0,0,0,0,0,0.1c0,0,0,0.1,0,0.1l-0.2,1.8c0,0.1,0,0.1-0.1,0.1
					c-0.4,0.2-1.3,0.4-2,0.4c-2.4,0-4.2-1.7-4.2-4.2c0-2.6,2-4.6,4.6-4.6c0.7,0,1.3,0.1,2,0.4c0.4,0.2,0.5,0.3,0.5,0.4v0L78.2,175.3
					z"/>
				<path class="st2" d="M86.4,181.4h-2.1l0.4-3.5h-3.1l-0.4,3.5H79l1-8.4h2.1l-0.4,3.1h3.1l0.4-3.1h2.1L86.4,181.4z"/>
				<path class="st2" d="M93.9,181.4l-0.4-1.5h-2.9l-0.7,1.5h-2.4l4.2-8.4h2.4l2,8.4H93.9z M92.7,176.7c-0.1-0.3-0.1-0.5-0.1-0.6
					c0-0.3-0.1-0.4-0.1-0.7c0,0.1-0.1,0.2-0.1,0.3c-0.1,0.2-0.2,0.5-0.3,0.7l-0.8,1.7h1.7L92.7,176.7z"/>
				<path class="st2" d="M105.3,181.4H103l-2.2-3.8c-0.1-0.2-0.2-0.4-0.4-0.7c-0.3-0.5-0.4-0.8-0.7-1.4v0.4c0,0.6,0,1.1-0.1,1.6
					l-0.5,3.9h-2.1l1-8.4h2.3l2.4,4.1l0.4,0.7l0.3,0.6l0.2,0.3c0-0.2,0-0.3,0-0.3c0-0.3,0-0.7,0.1-1.1l0.5-4.2h2.1L105.3,181.4z"/>
				<path class="st2" d="M115.8,176.7c0,0.2,0,0.4,0,0.5c0,0.5-0.1,0.9-0.2,1.3c-0.5,1.9-2,3-4.1,3c-2.5,0-4.2-1.7-4.2-4.1
					c0-2.7,1.9-4.6,4.6-4.6c1.2,0,2.1,0.3,2.8,1.1c0.4,0.4,0.6,0.7,0.9,1.4l-1.8,0.7c-0.2-0.5-0.4-0.7-0.6-0.9
					c-0.4-0.3-0.8-0.5-1.4-0.5c-1.3,0-2.4,1.2-2.4,2.7c0,1.4,0.9,2.4,2.2,2.4c0.6,0,1.2-0.2,1.5-0.7c0.1-0.2,0.2-0.3,0.3-0.7h-1.9
					l0.2-1.7H115.8z"/>
				<path class="st2" d="M122.2,174.9h-2.5l-0.2,1.4h2.4l-0.2,1.8h-2.4l-0.2,1.4h2.6l-0.2,1.8h-4.7l1-8.4h4.6L122.2,174.9z"/>
			</g>
		</g>
	</g>
</g>
<g id="Logo_grand">
</g>
<g id="Favicon">
</g>
</svg>
