<svg id="Calque_1" data-name="Calque 1" xmlns="http://www.w3.org/2000/svg" viewBox="0 0 136.06 181.42">
    <title>Hackaton_logo_date</title>
    <g style="opacity:0.7000000000000001">
        <path
            d="M15.64,165.45l7.88-8.26a68.76,68.76,0,0,0,5.69-6.77l.79-1.16A9.44,9.44,0,0,0,31.91,144a3.81,3.81,0,0,0-3.65-4.07,3.21,3.21,0,0,0-3.32,2.57,8.43,8.43,0,0,0-.29,2.58H16.22l.17-1.66a10.91,10.91,0,0,1,.83-3.41c2-4.52,6-6.93,11-6.93a12.15,12.15,0,0,1,8.63,3.16,10.38,10.38,0,0,1,3.4,8A11,11,0,0,1,39,149.43a22.76,22.76,0,0,1-3.27,4.31L31.2,158.6h9.42v6.85Z"
            style="fill:#fff" />
        <path
            d="M67.89,162a11.54,11.54,0,0,1-9.5,4.57,11.71,11.71,0,0,1-7.85-2.78,14.85,14.85,0,0,1-4.44-7.1,23.28,23.28,0,0,1-1-6.8c0-5,1.2-9,3.61-12.12a11.49,11.49,0,0,1,9.5-4.65,11.73,11.73,0,0,1,7.89,2.78,15.08,15.08,0,0,1,4.44,7.1,24.19,24.19,0,0,1,1,6.93C71.54,155,70.34,159,67.89,162Zm-9.46-21.66c-2,0-3.45,1.16-4.32,3.53a16.62,16.62,0,0,0-.91,6,17,17,0,0,0,.91,6c.87,2.37,2.33,3.57,4.28,3.57s3.4-1.2,4.23-3.57a17.93,17.93,0,0,0,.87-6C63.49,143.57,61.79,140.38,58.43,140.38Z"
            style="fill:#fff" />
        <path d="M79.06,165.45V141.17h-4.4v-6.85H87.15v31.13Z" style="fill:#fff" />
        <path
            d="M104.5,156.32a13.94,13.94,0,0,1-4-.92,11.34,11.34,0,0,1-3.36-19.34,14.29,14.29,0,0,1,9.3-3,13.8,13.8,0,0,1,9.38,3.2,10.12,10.12,0,0,1,3.65,8c0,3.86-1.58,7.85-4.73,12l-6.93,9.13H98.73l7.47-9.09h-.62ZM110.14,141a5.12,5.12,0,1,0-3.65,8.72,5.09,5.09,0,0,0,5.15-5.11A4.92,4.92,0,0,0,110.14,141Z"
            style="fill:#fff" />
    </g>
    <polygon
        points="25.09 127.04 22.15 127.04 22.75 122.21 18.45 122.21 17.85 127.04 14.92 127.04 16.35 115.43 19.29 115.43 18.76 119.66 23.06 119.66 23.57 115.43 26.51 115.43 25.09 127.04"
        style="fill:#fff" />
    <path
        d="M33.82,120.57c-.09-.44-.15-.68-.17-.78-.06-.35-.09-.52-.15-1-.07.17-.11.31-.14.4a9.52,9.52,0,0,1-.39,1l-1.08,2.4h2.36ZM35.35,127l-.51-2.12h-4l-1,2.12H26.58l5.74-11.61h3.31L38.45,127Z"
        style="fill:#fff" />
    <path
        d="M49,118.63c0,.28,0,.3-.11.3l-.1-.05-.17-.14A4.36,4.36,0,0,0,46,118a3.39,3.39,0,0,0-3.62,3.38,3,3,0,0,0,3.17,3.12,5.14,5.14,0,0,0,2.56-.63l.09-.06.06.07V124l-.22,2.53-.17.2a7.62,7.62,0,0,1-2.72.51,5.57,5.57,0,0,1-5.77-5.77,6.25,6.25,0,0,1,6.35-6.3,6.84,6.84,0,0,1,2.77.59c.51.21.7.35.7.52v0Z"
        style="fill:#fff" />
    <path
        d="M56.58,121.34l4,5.7H57l-2.5-3.72c0-.09-.15-.26-.32-.54a10.29,10.29,0,0,1-.56-1L53,127H50.07l1.42-11.61h2.94l-.63,5.09,3.84-5.09H61Z"
        style="fill:#fff" />
    <path
        d="M68.6,120.57c-.1-.44-.16-.68-.17-.78-.07-.35-.1-.52-.16-1l-.14.4c-.11.33-.25.68-.38,1l-1.09,2.4H69ZM70.13,127l-.51-2.12h-4l-1,2.12H61.36l5.74-11.61h3.31L73.22,127Z"
        style="fill:#fff" />
    <polygon
        points="81.73 117.98 79.29 117.98 78.17 127.04 75.23 127.04 76.36 117.98 73.85 117.98 74.16 115.43 82.04 115.43 81.73 117.98"
        style="fill:#fff" />
    <polygon
        points="92.2 127.04 89.26 127.04 89.87 122.21 85.57 122.21 84.96 127.04 82.04 127.04 83.46 115.43 86.4 115.43 85.88 119.66 90.18 119.66 90.69 115.43 93.63 115.43 92.2 127.04"
        style="fill:#fff" />
    <path
        d="M101.3,117.8a3.41,3.41,0,0,0-3.45,3.51,3.2,3.2,0,0,0,3.25,3.34,3.33,3.33,0,0,0,3.37-3.46,3.18,3.18,0,0,0-3.17-3.39m-.17,9.64a5.93,5.93,0,0,1-6.28-6,6.28,6.28,0,0,1,6.51-6.38,5.74,5.74,0,0,1,6.11,6,6.16,6.16,0,0,1-6.34,6.47"
        style="fill:#fff" />
    <path
        d="M120.19,127H117l-3.1-5.2c-.14-.25-.31-.54-.49-.92a19.21,19.21,0,0,1-.93-2v.53a16.43,16.43,0,0,1-.12,2.19l-.65,5.36h-2.94l1.42-11.61h3.17l3.31,5.6.5.93.45.9.23.43c0-.22,0-.37,0-.48,0-.45.07-1,.13-1.51l.73-5.87h2.92Z"
        style="fill:#fff" />
    <polygon points="71.91 60.67 89.73 69.59 107.55 60.67 89.73 51.76 71.91 60.67"
        style="fill:#fff;opacity:0.7000000000000001" />
    <polygon points="94.66 49.3 110.28 57.11 110.28 41.49 94.66 49.3" style="fill:#fff" />
    <polygon points="49.16 49.3 66.98 58.21 84.8 49.3 66.98 40.39 49.16 49.3"
        style="fill:#fff;opacity:0.7000000000000001" />
    <polygon points="23.68 41.49 23.68 57.11 39.3 49.3 23.68 41.49" style="fill:#fff;opacity:0.7000000000000001" />
    <polygon points="26.41 60.67 44.23 69.59 62.05 60.67 44.23 51.76 26.41 60.67"
        style="fill:#fff;opacity:0.7000000000000001" />
    <polygon points="71.91 37.93 89.73 46.84 107.55 37.93 89.73 29.02 71.91 37.93"
        style="fill:#fff;opacity:0.7000000000000001" />
    <polygon points="26.41 37.93 44.23 46.84 62.05 37.93 44.23 29.02 26.41 37.93"
        style="fill:#fff;opacity:0.7000000000000001" />
    <polygon points="23.68 87.58 42.03 96.75 42.03 73.41 23.68 64.24 23.68 87.58"
        style="fill:#fff;opacity:0.7000000000000001" />
    <polygon points="46.43 73.41 46.43 96.75 64.78 87.58 64.78 64.24 46.43 73.41" style="fill:#fff" />
    <polygon points="69.18 87.58 87.53 96.75 87.53 73.41 69.18 64.24 69.18 87.58"
        style="fill:#fff;opacity:0.7000000000000001" />
    <polygon points="91.93 73.41 91.93 96.75 110.28 87.58 110.28 64.24 91.93 73.41" style="fill:#fff" />
</svg>