<?xml version="1.0" encoding="utf-8"?>
<!-- Generator: Adobe Illustrator 22.1.0, SVG Export Plug-In . SVG Version: 6.00 Build 0)  -->
<svg version="1.1" id="Calque_1" xmlns="http://www.w3.org/2000/svg" xmlns:xlink="http://www.w3.org/1999/xlink" x="0px" y="0px"
	 viewBox="0 0 135.8 90.4" style="enable-background:new 0 0 135.8 115.4;" xml:space="preserve">
<style type="text/css">
	.st0{display:none;fill:#4AC0C1;}
	.st1{fill:#FFFFFF;}
	.st2{opacity:0.7;fill:#FFFFFF;enable-background:new    ;}
</style>
<title>Hackaton</title>
<polygon class="st2" points="72.3,38.7 90.2,47.6 108,38.7 90.2,29.8 "/>
<polygon class="st1" points="95.1,27.3 110.7,35.1 110.7,19.5 "/>
<polygon class="st2" points="49.6,27.3 67.4,36.2 85.2,27.3 67.4,18.4 "/>
<polygon class="st2" points="24.1,19.5 24.1,35.1 39.7,27.3 "/>
<polygon class="st2" points="26.9,38.7 44.7,47.6 62.5,38.7 44.7,29.8 "/>
<polygon class="st2" points="72.3,15.9 90.2,24.9 108,15.9 90.2,7 "/>
<polygon class="st2" points="26.9,15.9 44.7,24.9 62.5,15.9 44.7,7 "/>
<polygon class="st2" points="24.1,65.6 42.5,74.8 42.5,51.4 24.1,42.3 "/>
<polygon class="st1" points="46.9,51.4 46.9,74.8 65.2,65.6 65.2,42.3 "/>
<polygon class="st2" points="69.6,65.6 88,74.8 88,51.4 69.6,42.3 "/>
<polygon class="st1" points="92.4,51.4 92.4,74.8 110.7,65.6 110.7,42.3 "/>
</svg>
